{"title":"Appaloosa[2008].Dvdrip.Xvid.[Engsubs].AC3[5.1]-RoCK&amp;BlueLadyRG","uid":4616215,"size":1778566672,"categoryP":"video","categoryS":"movies","magnet":"?xt=urn:btih:efae90fd123bc224de7ef677e4ce50b750020237&amp;dn=Appaloosa%5B2008%5D.Dvdrip.Xvid.%5BEngsubs%5D.AC3%5B5.1%5D-RoCK%26BlueLadyRG&amp;tr=udp%3A%2F%2Ftracker.openbittorrent.com%3A80&amp;tr=udp%3A%2F%2Fopen.demonii.com%3A1337&amp;tr=udp%3A%2F%2Ftracker.coppersurfer.tk%3A6969&amp;tr=udp%3A%2F%2Fexodus.desync.com%3A6969","seeders":0,"leechers":1,"uploader":"RoCK_BlueLadyRG","files":4,"time":1230848344,"description":"RoCK &amp; BlueLady RG\n\n*******************************************************************************\n                       Proudly presents: Appeloosa (2008)\n*******************************************************************************\n\n-------------------------------------------------------------------------------\n                              General Information\n-------------------------------------------------------------------------------\nType                             : Movie\nBurn Tested                      : Yes\nSubtitles                        : English for the hearing impeared\n                                 : English Directors Commentary\n                                 : Dutch can be found on http://www.genesis-sp.com\n\nFormat                           : AVI\nFormat/Info                      : Audio Video Interleave\nFormat profile                   : OpenDML\nFile size                        : 1.66 GiB\nDuration                         : 1h 55mn\nOverall bit rate                 : 2 047 Kbps\nWriting application              : AVI-Mux GUI 1.17.7, Aug  8 2006  20:59:17\n\nAudio English\nFormat                           : AC-3\nFormat/Info                      : Audio Coding 3\nCodec ID                         : 2000\nBit rate mode                    : Constant\nBit rate                         : 384 Kbps\nChannel(s)                       : 6 channels\nChannel positions                : Front: L C R, Surround: L R, LFE\nSampling rate                    : 48.0 KHz\nStream size                      : 318 MiB (19%)\nAlignment                        : Aligned on interleaves\nInterleave, duration             : 64 ms (1.53 video frames)\nInterleave, preload duration     : 1216 ms\nTitle                            : English (movie)\n\nAudio English Directors Commentary\nFormat                           : MPEG Audio\nFormat version                   : Version 1\nFormat profile                   : Layer 3\nCodec ID                         : 55\nCodec ID/Hint                    : MP3\nBit rate mode                    : Variable\nBit rate                         : 130 Kbps\nNominal bit rate                 : 128 Kbps\nChannel(s)                       : 2 channels\nSampling rate                    : 48.0 KHz\nResolution                       : 16 bits\nStream size                      : 107 MiB (6%)\nAlignment                        : Aligned on interleaves\nInterleave, duration             : 24 ms (0.58 video frame)\nInterleave, preload duration     : 65 ms\nTitle                            : English (Directors commentary)\nWriting library                  : LAME3.90.\nEncoding settings                : ABR\n\nVideo\nFormat                           : MPEG-4 Visual\nFormat settings, BVOP            : No\nFormat settings, QPel            : No\nFormat settings, GMC             : No warppoints\nFormat settings, Matrix          : Default\nCodec ID                         : XVID\nCodec ID/Hint                    : XviD\nDuration                         : 1h 55mn\nBit rate                         : 1 523 Kbps\nWidth                            : 720 pixels\nHeight                           : 304 pixels\nDisplay aspect ratio             : 2.35\nFrame rate                       : 23.976 fps\nResolution                       : 24 bits\nColorimetry                      : 4:2:0\nScan type                        : Progressive\nBits/(Pixel*Frame)               : 0.290\nStream size                      : 1.23 GiB (74%)\nWriting library                  : XviD 1.0.3 (UTC 2004-12-20)\n\n\n\nSource                           : Retail-DVD\nOriginal Format                  : NTSC\nGenre                            : Crime | Drama | Western \nIMDb Rating                      : 7.2 (4,560 Votes)\nMovie Information                : http://www.imdb.com/title/tt0800308/\n-------------------------------------------------------------------------------\n                               Post Information\n-------------------------------------------------------------------------------\nPosted by............: RoCK (http://www.genesis-sp.com)\nPosted on............: 01-01-2009\n\n-------------------------------------------------------------------------------\n                                 Release Notes\n-------------------------------------------------------------------------------\nTwo friends hired to police a small town that is suffering under the rule of a \nrancher find their job complicated by the arrival of a young widow.\n\nDirector: Ed Harris\n\nWriters : Robert Knott\n          Ed Harris\n   \nCast    :\n\nRobert Jauregui     ...     Marshall Jack Bell (as Bobby Jauregui)\nJeremy Irons    ...     Randall Bragg\nTimothy V. Murphy    ...     Vince\nLuce Rains    ...     Dean\nJames Tarwater    ...     Chalk (as Jim Tarwater)\nBoyd Kestner    ...     Bronc\nGabriel Marantz    ...     Joe Whittfield\nEd Harris    ...     Virgil Cole\nViggo Mortensen    ...     Everett Hitch\nBenjamin Rosenshein    ...     Town Boy\nCerris Morgan-Moyer    ...     Tilda\nJames Gammon    ...     Earl May\nTimothy Spall    ...     Phil Olson\nTom Bower    ...     Abner Raines\nErik J. Bockemeier    ...     Fat Wallis\n\nEnjoy this movie!\n\n\n\n------------------------------------------------------------------------------------------\n                              Announcement\n------------------------------------------------------------------------------------------\nI decided to drop the 1cd versions and replace them with movies in MKV format. This means\nsmaller filesizes with higher quality. The movies you can watch in VLC or download the x264\ncodec!\n\nIf you want to decode it and burn it on dvd use convertxtodvd 3\n\n\nRoCK.\n\n\n\n\n\n\n------------------------------------------------------------------------------------------\nYou can find us both at: http://www.genesis-sp.com/\n------------------------------------------------------------------------------------------\n","torrent":{"xt":"urn:btih:efae90fd123bc224de7ef677e4ce50b750020237","amp;dn":"Appaloosa%5B2008%5D.Dvdrip.Xvid.%5BEngsubs%5D.AC3%5B5.1%5D-RoCK%26BlueLadyRG","amp;tr":["udp%3A%2F%2Ftracker.openbittorrent.com%3A80","udp%3A%2F%2Fopen.demonii.com%3A1337","udp%3A%2F%2Ftracker.coppersurfer.tk%3A6969","udp%3A%2F%2Fexodus.desync.com%3A6969"],"infoHash":"efae90fd123bc224de7ef677e4ce50b750020237","infoHashBuffer":{"type":"Buffer","data":[239,174,144,253,18,59,194,36,222,126,246,119,228,206,80,183,80,2,2,55]},"announce":[],"urlList":[]}}